<mxfile host="app.diagrams.net" agent="Mozilla/5.0 (Windows NT 10.0; Win64; x64) AppleWebKit/537.36 (KHTML, like Gecko) Chrome/131.0.0.0 Safari/537.36" version="24.9.1">
  <diagram name="หน้า-1" id="So-VkLAm52i1_gdbrn4V">
    <mxGraphModel dx="1050" dy="530" grid="1" gridSize="10" guides="1" tooltips="1" connect="1" arrows="1" fold="1" page="1" pageScale="1" pageWidth="827" pageHeight="1169" math="0" shadow="0">
      <root>
        <mxCell id="0" />
        <mxCell id="1" parent="0" />
        <mxCell id="u4CewXD7qqylSyL30lND-3" value="" style="edgeStyle=orthogonalEdgeStyle;rounded=0;orthogonalLoop=1;jettySize=auto;html=1;" edge="1" parent="1" source="u4CewXD7qqylSyL30lND-1" target="u4CewXD7qqylSyL30lND-2">
          <mxGeometry relative="1" as="geometry" />
        </mxCell>
        <mxCell id="u4CewXD7qqylSyL30lND-1" value="Start" style="ellipse;whiteSpace=wrap;html=1;" vertex="1" parent="1">
          <mxGeometry x="354" y="10" width="120" height="80" as="geometry" />
        </mxCell>
        <mxCell id="u4CewXD7qqylSyL30lND-5" value="" style="edgeStyle=orthogonalEdgeStyle;rounded=0;orthogonalLoop=1;jettySize=auto;html=1;" edge="1" parent="1" source="u4CewXD7qqylSyL30lND-2" target="u4CewXD7qqylSyL30lND-4">
          <mxGeometry relative="1" as="geometry" />
        </mxCell>
        <mxCell id="u4CewXD7qqylSyL30lND-2" value="Input a" style="shape=parallelogram;perimeter=parallelogramPerimeter;whiteSpace=wrap;html=1;fixedSize=1;" vertex="1" parent="1">
          <mxGeometry x="354" y="180" width="120" height="60" as="geometry" />
        </mxCell>
        <mxCell id="u4CewXD7qqylSyL30lND-7" value="" style="edgeStyle=orthogonalEdgeStyle;rounded=0;orthogonalLoop=1;jettySize=auto;html=1;" edge="1" parent="1" source="u4CewXD7qqylSyL30lND-4" target="u4CewXD7qqylSyL30lND-6">
          <mxGeometry relative="1" as="geometry" />
        </mxCell>
        <mxCell id="u4CewXD7qqylSyL30lND-4" value="Input b" style="shape=parallelogram;perimeter=parallelogramPerimeter;whiteSpace=wrap;html=1;fixedSize=1;" vertex="1" parent="1">
          <mxGeometry x="354" y="320" width="120" height="60" as="geometry" />
        </mxCell>
        <mxCell id="u4CewXD7qqylSyL30lND-9" value="" style="edgeStyle=orthogonalEdgeStyle;rounded=0;orthogonalLoop=1;jettySize=auto;html=1;" edge="1" parent="1" source="u4CewXD7qqylSyL30lND-6" target="u4CewXD7qqylSyL30lND-8">
          <mxGeometry relative="1" as="geometry" />
        </mxCell>
        <mxCell id="u4CewXD7qqylSyL30lND-6" value="Input c" style="shape=parallelogram;perimeter=parallelogramPerimeter;whiteSpace=wrap;html=1;fixedSize=1;" vertex="1" parent="1">
          <mxGeometry x="354" y="460" width="120" height="60" as="geometry" />
        </mxCell>
        <mxCell id="u4CewXD7qqylSyL30lND-11" value="" style="edgeStyle=orthogonalEdgeStyle;rounded=0;orthogonalLoop=1;jettySize=auto;html=1;" edge="1" parent="1" source="u4CewXD7qqylSyL30lND-8" target="u4CewXD7qqylSyL30lND-10">
          <mxGeometry relative="1" as="geometry" />
        </mxCell>
        <mxCell id="u4CewXD7qqylSyL30lND-8" value="Output a b c" style="shape=parallelogram;perimeter=parallelogramPerimeter;whiteSpace=wrap;html=1;fixedSize=1;" vertex="1" parent="1">
          <mxGeometry x="354" y="600" width="120" height="60" as="geometry" />
        </mxCell>
        <mxCell id="u4CewXD7qqylSyL30lND-13" value="F" style="edgeStyle=orthogonalEdgeStyle;rounded=0;orthogonalLoop=1;jettySize=auto;html=1;" edge="1" parent="1" source="u4CewXD7qqylSyL30lND-10" target="u4CewXD7qqylSyL30lND-12">
          <mxGeometry relative="1" as="geometry" />
        </mxCell>
        <mxCell id="u4CewXD7qqylSyL30lND-17" value="T" style="edgeStyle=orthogonalEdgeStyle;rounded=0;orthogonalLoop=1;jettySize=auto;html=1;" edge="1" parent="1" source="u4CewXD7qqylSyL30lND-10" target="u4CewXD7qqylSyL30lND-16">
          <mxGeometry relative="1" as="geometry" />
        </mxCell>
        <mxCell id="u4CewXD7qqylSyL30lND-10" value="If a &amp;gt; b&amp;amp;c" style="rhombus;whiteSpace=wrap;html=1;" vertex="1" parent="1">
          <mxGeometry x="374" y="730" width="80" height="80" as="geometry" />
        </mxCell>
        <mxCell id="u4CewXD7qqylSyL30lND-15" value="F" style="edgeStyle=orthogonalEdgeStyle;rounded=0;orthogonalLoop=1;jettySize=auto;html=1;" edge="1" parent="1" source="u4CewXD7qqylSyL30lND-12" target="u4CewXD7qqylSyL30lND-14">
          <mxGeometry relative="1" as="geometry" />
        </mxCell>
        <mxCell id="u4CewXD7qqylSyL30lND-19" value="T" style="edgeStyle=orthogonalEdgeStyle;rounded=0;orthogonalLoop=1;jettySize=auto;html=1;" edge="1" parent="1" source="u4CewXD7qqylSyL30lND-12" target="u4CewXD7qqylSyL30lND-18">
          <mxGeometry relative="1" as="geometry" />
        </mxCell>
        <mxCell id="u4CewXD7qqylSyL30lND-12" value="If b &amp;gt; a&amp;amp;c" style="rhombus;whiteSpace=wrap;html=1;" vertex="1" parent="1">
          <mxGeometry x="534" y="730" width="80" height="80" as="geometry" />
        </mxCell>
        <mxCell id="u4CewXD7qqylSyL30lND-21" value="T" style="edgeStyle=orthogonalEdgeStyle;rounded=0;orthogonalLoop=1;jettySize=auto;html=1;" edge="1" parent="1" source="u4CewXD7qqylSyL30lND-14" target="u4CewXD7qqylSyL30lND-20">
          <mxGeometry relative="1" as="geometry" />
        </mxCell>
        <mxCell id="u4CewXD7qqylSyL30lND-23" value="F" style="edgeStyle=orthogonalEdgeStyle;rounded=0;orthogonalLoop=1;jettySize=auto;html=1;" edge="1" parent="1" source="u4CewXD7qqylSyL30lND-14" target="u4CewXD7qqylSyL30lND-22">
          <mxGeometry relative="1" as="geometry" />
        </mxCell>
        <mxCell id="u4CewXD7qqylSyL30lND-14" value="If c &amp;gt; a&amp;amp;b" style="rhombus;whiteSpace=wrap;html=1;" vertex="1" parent="1">
          <mxGeometry x="694" y="730" width="80" height="80" as="geometry" />
        </mxCell>
        <mxCell id="u4CewXD7qqylSyL30lND-27" style="edgeStyle=orthogonalEdgeStyle;rounded=0;orthogonalLoop=1;jettySize=auto;html=1;exitX=0.5;exitY=1;exitDx=0;exitDy=0;entryX=0;entryY=0.5;entryDx=0;entryDy=0;" edge="1" parent="1" source="u4CewXD7qqylSyL30lND-16" target="u4CewXD7qqylSyL30lND-25">
          <mxGeometry relative="1" as="geometry" />
        </mxCell>
        <mxCell id="u4CewXD7qqylSyL30lND-16" value="Output The 1st Number is the greatest among three" style="shape=parallelogram;perimeter=parallelogramPerimeter;whiteSpace=wrap;html=1;fixedSize=1;" vertex="1" parent="1">
          <mxGeometry x="356" y="900" width="116" height="60" as="geometry" />
        </mxCell>
        <mxCell id="u4CewXD7qqylSyL30lND-28" style="edgeStyle=orthogonalEdgeStyle;rounded=0;orthogonalLoop=1;jettySize=auto;html=1;exitX=0.5;exitY=1;exitDx=0;exitDy=0;entryX=1;entryY=0.5;entryDx=0;entryDy=0;" edge="1" parent="1" source="u4CewXD7qqylSyL30lND-18" target="u4CewXD7qqylSyL30lND-25">
          <mxGeometry relative="1" as="geometry" />
        </mxCell>
        <mxCell id="u4CewXD7qqylSyL30lND-18" value="Output The 2nd Number is the greatest among three" style="shape=parallelogram;perimeter=parallelogramPerimeter;whiteSpace=wrap;html=1;fixedSize=1;" vertex="1" parent="1">
          <mxGeometry x="516" y="900" width="116" height="60" as="geometry" />
        </mxCell>
        <mxCell id="u4CewXD7qqylSyL30lND-29" style="edgeStyle=orthogonalEdgeStyle;rounded=0;orthogonalLoop=1;jettySize=auto;html=1;exitX=0.5;exitY=1;exitDx=0;exitDy=0;entryX=0;entryY=0.5;entryDx=0;entryDy=0;" edge="1" parent="1" source="u4CewXD7qqylSyL30lND-20" target="u4CewXD7qqylSyL30lND-26">
          <mxGeometry relative="1" as="geometry" />
        </mxCell>
        <mxCell id="u4CewXD7qqylSyL30lND-20" value="Output The 3rd Number is the greatest among three" style="shape=parallelogram;perimeter=parallelogramPerimeter;whiteSpace=wrap;html=1;fixedSize=1;" vertex="1" parent="1">
          <mxGeometry x="676" y="900" width="116" height="60" as="geometry" />
        </mxCell>
        <mxCell id="u4CewXD7qqylSyL30lND-30" style="edgeStyle=orthogonalEdgeStyle;rounded=0;orthogonalLoop=1;jettySize=auto;html=1;exitX=0.5;exitY=1;exitDx=0;exitDy=0;entryX=1;entryY=0.5;entryDx=0;entryDy=0;" edge="1" parent="1" source="u4CewXD7qqylSyL30lND-22" target="u4CewXD7qqylSyL30lND-26">
          <mxGeometry relative="1" as="geometry" />
        </mxCell>
        <mxCell id="u4CewXD7qqylSyL30lND-22" value="Output Error" style="shape=parallelogram;perimeter=parallelogramPerimeter;whiteSpace=wrap;html=1;fixedSize=1;" vertex="1" parent="1">
          <mxGeometry x="834" y="740" width="120" height="60" as="geometry" />
        </mxCell>
        <mxCell id="u4CewXD7qqylSyL30lND-32" style="edgeStyle=orthogonalEdgeStyle;rounded=0;orthogonalLoop=1;jettySize=auto;html=1;exitX=0.5;exitY=1;exitDx=0;exitDy=0;entryX=0;entryY=0.5;entryDx=0;entryDy=0;" edge="1" parent="1" source="u4CewXD7qqylSyL30lND-25" target="u4CewXD7qqylSyL30lND-31">
          <mxGeometry relative="1" as="geometry" />
        </mxCell>
        <mxCell id="u4CewXD7qqylSyL30lND-25" value="" style="ellipse;whiteSpace=wrap;html=1;aspect=fixed;" vertex="1" parent="1">
          <mxGeometry x="480" y="990" width="10" height="10" as="geometry" />
        </mxCell>
        <mxCell id="u4CewXD7qqylSyL30lND-33" style="edgeStyle=orthogonalEdgeStyle;rounded=0;orthogonalLoop=1;jettySize=auto;html=1;exitX=0.5;exitY=1;exitDx=0;exitDy=0;entryX=1;entryY=0.5;entryDx=0;entryDy=0;" edge="1" parent="1" source="u4CewXD7qqylSyL30lND-26" target="u4CewXD7qqylSyL30lND-31">
          <mxGeometry relative="1" as="geometry" />
        </mxCell>
        <mxCell id="u4CewXD7qqylSyL30lND-26" value="" style="ellipse;whiteSpace=wrap;html=1;aspect=fixed;" vertex="1" parent="1">
          <mxGeometry x="800" y="990" width="10" height="10" as="geometry" />
        </mxCell>
        <mxCell id="u4CewXD7qqylSyL30lND-35" value="" style="edgeStyle=orthogonalEdgeStyle;rounded=0;orthogonalLoop=1;jettySize=auto;html=1;" edge="1" parent="1" source="u4CewXD7qqylSyL30lND-31" target="u4CewXD7qqylSyL30lND-34">
          <mxGeometry relative="1" as="geometry" />
        </mxCell>
        <mxCell id="u4CewXD7qqylSyL30lND-31" value="" style="ellipse;whiteSpace=wrap;html=1;aspect=fixed;" vertex="1" parent="1">
          <mxGeometry x="640" y="1030" width="10" height="10" as="geometry" />
        </mxCell>
        <mxCell id="u4CewXD7qqylSyL30lND-34" value="End" style="ellipse;whiteSpace=wrap;html=1;" vertex="1" parent="1">
          <mxGeometry x="585" y="1140" width="120" height="80" as="geometry" />
        </mxCell>
      </root>
    </mxGraphModel>
  </diagram>
</mxfile>
